<?xml version="1.0" standalone="no"?>
<!DOCTYPE svg PUBLIC "-//W3C//DTD SVG 20010904//EN"
 "http://www.w3.org/TR/2001/REC-SVG-20010904/DTD/svg10.dtd">
<svg version="1.0" xmlns="http://www.w3.org/2000/svg"
 width="1265.000000pt" height="863.000000pt" viewBox="0 0 1265.000000 863.000000"
 preserveAspectRatio="xMidYMid meet">

<g transform="translate(0.000000,863.000000) scale(0.100000,-0.100000)"
fill="#000000" stroke="none">
<path d="M2512 4533 c-6 -16 -15 -106 -21 -201 -20 -307 -67 -541 -154 -763
-90 -230 -166 -357 -274 -460 -137 -130 -282 -151 -379 -54 -60 61 -73 121
-45 214 13 44 38 91 66 129 42 56 56 92 37 92 -18 0 -90 -59 -125 -102 -20
-24 -51 -75 -69 -114 -31 -66 -33 -75 -33 -184 0 -106 2 -119 27 -166 58 -110
171 -173 287 -160 139 16 253 77 366 197 89 94 140 172 220 334 74 150 118
272 168 470 64 247 89 404 91 560 1 131 -1 143 -22 178 -28 44 -49 57 -95 57
-29 0 -36 -5 -45 -27z"/>
<path d="M8222 4465 c-11 -13 -53 -103 -95 -199 -115 -264 -208 -529 -293
-830 -14 -51 -26 -69 -83 -123 -162 -157 -347 -241 -445 -203 -57 21 -82 112
-52 184 12 30 19 34 65 40 136 18 261 122 261 219 0 49 -31 110 -65 125 -14 7
-50 12 -79 12 -64 0 -116 -30 -192 -112 -59 -63 -88 -114 -120 -213 l-22 -70
-104 -33 c-125 -40 -414 -111 -480 -119 -44 -5 -48 -4 -48 15 0 12 18 67 40
122 22 56 81 235 131 398 50 163 113 367 141 452 27 85 52 178 55 206 5 50 5
53 -25 68 -69 35 -95 16 -141 -105 -90 -235 -407 -1210 -417 -1283 -8 -57 7
-83 63 -108 43 -19 47 -19 121 -3 96 21 308 97 495 176 186 79 170 76 186 33
15 -43 73 -109 112 -130 17 -8 56 -14 96 -14 121 1 253 70 382 200 46 46 81
75 78 65 -8 -26 -54 -240 -62 -286 -3 -20 -1 -49 5 -63 9 -24 14 -27 52 -24
42 3 44 5 73 64 l30 60 122 0 c119 0 123 0 189 34 87 45 124 98 131 192 11
139 -53 292 -174 418 -40 41 -73 83 -73 92 0 32 126 360 221 574 27 61 49 120
49 132 0 11 -12 30 -26 41 -36 29 -78 27 -102 -4z m-134 -939 c135 -145 163
-323 59 -386 -52 -32 -186 -24 -209 13 -16 25 -7 108 28 263 20 87 38 162 41
166 9 16 22 7 81 -56z m-638 16 c0 -28 -76 -92 -109 -92 -23 0 -10 36 26 72
40 41 83 51 83 20z"/>
<path d="M8795 4284 c-57 -57 -240 -513 -325 -810 -65 -228 -86 -360 -71 -435
7 -34 23 -69 40 -90 26 -31 33 -34 82 -33 69 1 120 27 203 104 61 58 65 60 71
38 13 -42 35 -58 81 -58 64 0 134 36 270 137 139 104 157 115 177 107 8 -3 24
-31 36 -62 61 -169 158 -223 271 -153 l48 30 7 -55 c11 -88 49 -108 101 -51
17 17 62 77 101 132 133 188 209 265 265 265 38 0 45 -19 58 -160 13 -143 24
-186 60 -222 23 -22 38 -28 72 -28 52 0 93 24 157 90 l46 48 21 -31 c12 -18
44 -45 73 -60 112 -61 264 -25 378 89 46 45 67 84 47 84 -3 0 -38 -16 -78 -35
-94 -47 -149 -53 -209 -27 -83 37 -111 112 -82 220 31 114 125 190 256 207 58
7 77 21 85 62 5 26 1 37 -19 57 -23 23 -34 26 -94 26 -159 0 -332 -141 -384
-311 -16 -54 -20 -89 -17 -159 l3 -90 -34 -16 c-54 -26 -90 -23 -113 8 -17 21
-22 50 -29 151 -9 138 -19 185 -49 235 -21 34 -72 62 -112 62 -57 0 -157 -77
-277 -215 l-52 -60 25 65 c13 36 43 111 66 166 47 112 48 143 5 162 -37 17
-69 15 -87 -5 -47 -53 -121 -257 -154 -422 -16 -82 -23 -97 -52 -122 -44 -39
-92 -40 -121 -2 -32 39 -36 69 -23 172 11 84 11 97 -5 130 -24 48 -58 59 -115
38 -67 -26 -158 -83 -260 -163 -51 -41 -97 -74 -101 -74 -18 0 41 87 105 155
80 86 206 185 235 185 11 0 32 -9 46 -20 28 -22 67 -26 85 -8 31 31 -3 141
-54 175 -39 25 -114 19 -187 -15 -117 -54 -246 -185 -377 -380 -61 -91 -72
-102 -173 -169 -158 -107 -198 -99 -177 34 41 260 121 518 269 866 39 92 71
181 71 197 0 18 -8 34 -22 44 -28 20 -43 20 -63 0z"/>
<path d="M3685 4238 c-55 -65 -190 -366 -265 -588 -50 -149 -110 -395 -123
-503 -11 -90 -13 -98 -35 -104 -32 -8 -70 12 -82 43 -15 38 -12 100 11 231 42
244 41 226 20 246 -38 38 -60 20 -300 -242 -128 -140 -191 -180 -191 -119 0
11 25 93 55 181 30 88 55 173 55 189 0 63 -39 86 -88 52 -64 -45 -182 -381
-182 -519 0 -89 22 -131 74 -141 79 -14 240 100 354 251 25 33 48 64 52 68 4
4 7 -50 6 -120 -1 -136 6 -165 54 -208 30 -28 111 -26 167 3 l42 22 16 -30
c20 -39 43 -50 102 -50 72 0 142 41 254 148 97 92 97 92 88 55 -14 -63 -11
-123 7 -130 31 -12 66 11 95 62 32 57 189 583 189 633 0 26 -5 35 -27 43 -18
7 -41 8 -63 2 -50 -12 -77 -71 -130 -289 l-45 -182 -105 -75 c-125 -89 -182
-119 -218 -115 -27 3 -27 4 -26 78 2 156 91 463 229 790 45 107 90 219 99 248
17 49 17 55 2 77 -23 35 -58 32 -91 -7z"/>
<path d="M4087 4220 c-75 -59 -45 -180 43 -180 73 0 118 71 90 141 -25 59 -85
77 -133 39z"/>
<path d="M4361 3667 c-57 -29 -144 -124 -180 -195 -48 -96 -64 -158 -63 -248
1 -87 19 -142 66 -192 102 -113 318 -69 503 102 35 32 63 52 63 45 0 -8 -5
-41 -10 -74 -11 -69 0 -163 21 -176 41 -26 71 1 172 151 39 58 108 142 152
188 68 69 86 82 112 82 21 0 36 -6 42 -17 5 -10 14 -70 20 -133 18 -202 49
-260 136 -260 67 0 168 80 214 168 18 34 7 37 -31 9 -38 -28 -102 -51 -123
-43 -34 13 -47 55 -55 178 -13 194 -40 260 -117 287 -68 24 -109 5 -218 -100
-52 -50 -104 -106 -117 -125 -25 -36 -41 -45 -31 -16 3 9 32 81 65 159 60 145
68 182 45 202 -22 18 -73 24 -96 12 -29 -16 -66 -93 -115 -235 l-41 -120 -85
-69 c-196 -158 -379 -194 -426 -82 -18 44 -18 75 2 124 14 36 18 39 67 45 95
13 209 81 242 146 32 61 13 159 -37 194 -34 24 -124 20 -177 -7z m102 -120 c7
-18 -1 -30 -47 -66 -75 -60 -105 -27 -37 40 39 39 75 50 84 26z"/>
<path d="M5835 3600 c-118 -13 -213 -35 -235 -55 -31 -28 -27 -99 6 -132 31
-31 25 -32 274 43 102 31 222 67 267 80 45 13 85 29 88 34 17 27 -245 47 -400
30z"/>
<path d="M5344 1798 c-54 -122 -100 -225 -102 -230 -2 -4 11 -8 30 -8 32 0 34
3 62 70 l29 71 85 -3 85 -3 28 -65 c24 -58 30 -65 58 -68 17 -2 31 1 31 6 0
11 -189 435 -199 445 -4 4 -52 -92 -107 -215z m134 25 c12 -28 22 -56 22 -62
0 -7 -23 -11 -55 -11 -30 0 -55 2 -55 5 0 17 55 134 60 128 4 -5 16 -31 28
-60z"/>
<path d="M4030 1980 l0 -30 60 0 60 0 0 -195 0 -195 30 0 30 0 0 195 0 195 66
0 c64 0 66 1 60 23 -3 12 -6 25 -6 30 0 4 -67 7 -150 7 l-150 0 0 -30z"/>
<path d="M4670 1785 l0 -225 25 0 c25 0 25 1 25 85 0 47 3 85 8 85 4 0 36 -38
71 -85 62 -81 66 -85 103 -85 l39 0 -48 61 c-94 119 -90 105 -44 129 48 24 71
63 71 120 0 93 -61 139 -182 140 l-68 0 0 -225z m135 161 c83 -35 73 -142 -16
-166 -64 -18 -69 -12 -69 83 0 46 3 87 7 90 10 11 41 8 78 -7z"/>
<path d="M5980 1785 l0 -225 30 0 30 0 0 225 0 225 -30 0 -30 0 0 -225z"/>
<path d="M6376 1994 c-15 -39 -8 -44 59 -44 l65 0 0 -195 0 -195 30 0 30 0 0
195 0 195 60 0 60 0 0 30 0 30 -149 0 c-127 0 -150 -2 -155 -16z"/>
<path d="M7010 1785 l0 -225 125 0 c69 0 125 4 125 9 0 5 3 16 6 25 5 14 -7
16 -95 16 l-101 0 0 75 0 75 80 0 80 0 0 30 0 30 -80 0 -80 0 0 70 0 70 95 0
c52 0 95 4 95 9 0 38 -10 41 -131 41 l-119 0 0 -225z"/>
<path d="M7602 1838 c4 -192 11 -217 70 -260 45 -32 153 -33 194 -2 66 49 69
59 72 255 l3 179 -30 0 -31 0 0 -162 c0 -144 -2 -167 -20 -195 -41 -68 -145
-59 -182 17 -15 29 -18 62 -18 188 l0 152 -31 0 -31 0 4 -172z"/>
<path d="M8300 1785 l0 -225 30 0 29 0 3 90 3 90 68 -90 c66 -87 70 -90 108
-90 l40 0 -66 81 c-36 45 -65 84 -65 87 0 4 18 15 39 25 51 23 76 69 69 131
-10 85 -70 126 -188 126 l-70 0 0 -225z m167 150 c44 -29 38 -118 -11 -145
-13 -6 -38 -12 -57 -13 l-34 -2 -3 79 c-4 104 -1 110 46 101 20 -3 47 -13 59
-20z"/>
</g>
</svg>
